HIERARCHY
ROOT Hips
{
	OFFSET 0.000000 0.000000 0.000000 
	CHANNELS 6 Xposition Yposition Zposition Zrotation Yrotation Xrotation
	JOINT LeftUpLeg
	{
		OFFSET 1.363060 -1.794630 0.839290 
		CHANNELS 3 Zrotation Yrotation Xrotation
		JOINT LeftLeg
		{
			OFFSET 2.448110 -6.726130 0.000000 
			CHANNELS 3 Zrotation Yrotation Xrotation
			JOINT LeftFoot
			{
				OFFSET 2.562200 -7.039590 0.000000 
				CHANNELS 3 Zrotation Yrotation Xrotation
				JOINT LeftToeBase
				{
					OFFSET 0.157640 -0.433110 2.322550 
					CHANNELS 3 Zrotation Yrotation Xrotation
					End Site
					{
						OFFSET 0.000000 0.000000 0.000000 
					}
				}
			}
		}
	}
	JOINT RightUpLeg
	{
		OFFSET -1.305520 -1.794630 0.839290 
		CHANNELS 3 Zrotation Yrotation Xrotation
		JOINT RightLeg
		{
			OFFSET -2.542530 -6.985550 0.000000 
			CHANNELS 3 Zrotation Yrotation Xrotation
			JOINT RightFoot
			{
				OFFSET -2.568260 -7.056230 0.000000 
				CHANNELS 3 Zrotation Yrotation Xrotation
				JOINT RightToeBase
				{
					OFFSET -0.164730 -0.452590 2.363150 
					CHANNELS 3 Zrotation Yrotation Xrotation
					End Site
					{
						OFFSET 0.000000 0.000000 0.000000 
					}
				}
			}
		}
	}
	JOINT Spine
	{
		OFFSET 0.028270 2.035590 -0.193380 
		CHANNELS 3 Zrotation Yrotation Xrotation
		JOINT Spine1
		{
			OFFSET 0.056720 2.048850 -0.042750 
			CHANNELS 3 Zrotation Yrotation Xrotation
			JOINT Neck1
			{
				OFFSET -0.054170 1.746240 0.172020 
				CHANNELS 3 Zrotation Yrotation Xrotation
				JOINT Head
				{
					OFFSET 0.104070 1.761360 -0.123970 
					CHANNELS 3 Zrotation Yrotation Xrotation
					End Site
					{
						OFFSET 0.000000 0.000000 0.000000 
					}
				}
			}
			JOINT LeftArm
			{
				OFFSET 3.362410 1.200890 -0.311210 
				CHANNELS 3 Zrotation Yrotation Xrotation
				JOINT LeftForeArm
				{
					OFFSET 4.983000 -0.000000 -0.000000 
					CHANNELS 3 Zrotation Yrotation Xrotation
					JOINT LeftHand
					{
						OFFSET 3.483560 -0.000000 -0.000000 
						CHANNELS 3 Zrotation Yrotation Xrotation
						JOINT LeftHandIndex1
						{
							OFFSET 0.715260 -0.000000 -0.000000 
							CHANNELS 3 Zrotation Yrotation Xrotation
							End Site
							{
								OFFSET 0.000000 0.000000 0.000000 
							}
						}
					}
				}
			}
			JOINT RightArm
			{
				OFFSET -3.136600 1.374050 -0.404650 
				CHANNELS 3 Zrotation Yrotation Xrotation
				JOINT RightForeArm
				{
					OFFSET -5.241900 -0.000000 -0.000000 
					CHANNELS 3 Zrotation Yrotation Xrotation
					JOINT RightHand
					{
						OFFSET -3.444170 -0.000000 -0.000000 
						CHANNELS 3 Zrotation Yrotation Xrotation
						JOINT RightHandIndex1
						{
							OFFSET -0.622530 -0.000000 -0.000000 
							CHANNELS 3 Zrotation Yrotation Xrotation
							End Site
							{
								OFFSET 0.000000 0.000000 0.000000 
							}
						}
					}
				}
			}
		}
	}
}
MOTION
Frames: 10
Frame Time: 0.041667
-28.748908 17.981691 20.938728 -177.645462 6.839844 -169.934373 -12.629066 8.345462 -16.178273 1.277676 11.420834 30.505180 -3.135701 12.895905 -4.741345 0.016000 -0.817400 -2.246400 19.996212 3.107146 -23.297541 -0.549940 -11.258627 28.354003 2.710712 -11.749682 -0.348049 -0.710400 -5.386600 15.014500 3.173610 1.170376 -2.044178 -4.486056 0.315690 -5.204699 18.084132 -11.214415 18.704259 3.648000 -2.914600 11.535900 -90.907279 -3.697048 26.608518 9.207579 -12.676093 -1.418908 -3.662130 -1.009825 8.910315 -7.125000 0.000000 0.000000 88.664199 -3.401036 21.178417 -15.875613 26.407830 -3.807171 -0.088315 -0.732536 2.326319 7.125000 0.000000 0.000000 
-28.742633 17.984131 20.921648 -177.644032 6.836847 -169.884475 -12.600329 8.473572 -16.321375 1.328141 11.476628 30.681890 -3.152997 12.944103 -4.515448 0.035600 -1.217100 -3.346300 20.004164 3.152888 -23.247164 -0.539779 -11.243874 28.313826 2.712251 -11.747269 -0.441565 -0.731600 -5.464700 15.238800 3.170216 1.153398 -2.085771 -4.539642 0.302514 -5.242113 18.012757 -11.268072 18.785593 3.598900 -2.924600 11.554400 -90.974186 -3.547122 27.280196 9.311703 -12.841279 -1.454206 -3.637433 -1.046653 8.491262 -7.125000 0.000000 0.000000 88.843349 -3.264051 20.821139 -16.044764 26.595760 -3.865704 -0.100858 -0.724255 2.987717 7.125000 0.000000 0.000000 
-28.733687 17.984944 20.904800 -177.642046 6.866793 -169.827657 -12.566221 8.622959 -16.477897 1.377153 11.534707 30.878375 -3.083819 12.715953 -4.326229 0.032900 -1.171500 -3.220900 20.042087 3.105808 -23.243081 -0.528489 -11.226129 28.268252 2.686168 -11.662460 -0.444170 -0.726300 -5.445200 15.182800 3.193991 1.164156 -2.105500 -4.529195 0.308419 -5.255308 18.004987 -11.323404 18.839966 3.598500 -2.946800 11.585800 -91.069093 -3.488001 27.769140 9.367105 -12.921612 -1.473202 -3.628697 -1.054998 8.322217 -7.125000 0.000000 0.000000 88.773092 -3.392045 22.217510 -16.562667 27.217378 -4.070969 -0.069321 -0.758301 0.967078 7.125000 0.000000 0.000000 
-28.724275 17.987268 20.887488 -177.684648 6.904398 -169.769266 -12.578495 8.790761 -16.642645 1.425161 11.594506 31.075568 -3.021950 12.514734 -4.163913 0.031700 -1.149100 -3.159100 20.031367 3.113800 -23.205338 -0.516561 -11.204802 28.210907 2.683905 -11.651768 -0.463764 -0.717800 -5.414200 15.093800 3.196254 1.191703 -2.145024 -4.519265 0.323788 -5.286515 18.046197 -11.410180 18.912345 3.618000 -2.976900 11.619700 -91.143944 -3.348257 28.604659 9.470850 -13.083089 -1.509557 -3.597921 -1.086692 7.866011 -7.125000 0.000000 0.000000 88.836725 -3.340008 22.417100 -16.782825 27.465291 -4.148186 -0.067935 -0.757261 0.810488 7.125000 0.000000 0.000000 
-28.716607 17.989011 20.871337 -177.679204 6.917323 -169.734963 -12.541572 9.009426 -16.801255 1.476607 11.647747 31.258279 -2.955602 12.294421 -3.851211 0.039100 -1.275900 -3.508300 20.043580 3.173650 -23.136020 -0.503738 -11.187492 28.164601 2.665820 -11.587768 -0.543950 -0.763400 -5.579600 15.569300 3.185622 1.191474 -2.194835 -4.580973 0.317988 -5.350760 18.049680 -11.425431 18.933561 3.609100 -2.974200 11.613000 -91.201325 -3.217981 29.075192 9.535073 -13.183926 -1.532899 -3.580419 -1.076599 7.757812 -7.125000 0.000000 0.000000 88.907296 -3.326935 22.740334 -17.013012 27.738210 -4.245573 -0.062122 -0.770475 0.450420 7.125000 0.000000 0.000000 
-28.709171 17.990521 20.854606 -177.654173 6.934497 -169.673651 -12.465028 9.089403 -16.909004 1.518007 11.697742 31.437411 -2.845748 11.934081 -3.690250 0.024000 -1.000500 -2.750200 20.103462 3.165136 -23.112255 -0.492235 -11.170552 28.113848 2.669721 -11.600242 -0.577110 -0.738000 -5.488300 15.306600 3.222723 1.197672 -2.214443 -4.572653 0.320679 -5.356163 18.005585 -11.482733 18.998185 3.589600 -2.997100 11.641200 -91.316389 -3.153003 29.644346 9.606434 -13.287337 -1.557717 -3.566136 -1.097656 7.550644 -7.125000 0.000000 0.000000 88.651743 -3.353681 23.556415 -17.331182 28.092351 -4.360454 -0.049378 -0.773045 -0.376630 7.125000 0.000000 0.000000 
-28.700921 17.991915 20.838572 -177.687376 6.915038 -169.628574 -12.457925 9.240353 -17.054246 1.561812 11.745981 31.595050 -2.801756 11.788571 -3.375887 0.032900 -1.170800 -3.218900 20.080400 3.185444 -23.077586 -0.482937 -11.154711 28.074501 2.659381 -11.560136 -0.632713 -0.771700 -5.609100 15.654400 3.213002 1.191436 -2.260671 -4.591709 0.314764 -5.401186 18.152666 -11.577313 19.108214 3.669500 -3.022300 11.709200 -91.356397 -3.041769 30.211221 9.675462 -13.392223 -1.582422 -3.521152 -1.091400 7.375430 -7.125000 0.000000 0.000000 88.731971 -3.305786 23.579060 -17.467298 28.246163 -4.416015 -0.053308 -0.775349 -0.313772 7.125000 0.000000 0.000000 
-28.693950 17.994239 20.821957 -177.721682 6.932977 -169.594214 -12.461545 9.381068 -17.174148 1.599928 11.795160 31.766593 -2.705616 11.477147 -3.309104 0.020400 -0.922400 -2.535200 20.061179 3.231829 -23.012049 -0.474229 -11.139579 28.033092 2.670468 -11.590275 -0.697025 -0.761700 -5.573400 15.551600 3.192745 1.216621 -2.277524 -4.640830 0.323813 -5.416405 18.134558 -11.624571 19.096496 3.653300 -3.045400 11.702000 -91.410536 -2.984536 30.740705 9.739564 -13.486093 -1.605107 -3.476844 -1.089746 7.289632 -7.125000 0.000000 0.000000 88.704058 -3.264588 24.019175 -17.632939 28.436928 -4.482686 -0.045941 -0.782650 -0.638628 7.125000 0.000000 0.000000 
-28.685933 17.994007 20.805806 -177.715432 6.933233 -169.553428 -12.439976 9.669996 -17.361727 1.652876 11.839397 31.918825 -2.709988 11.486981 -2.952713 0.057700 -1.550600 -4.265300 20.096458 3.196233 -22.997070 -0.467156 -11.127592 27.997738 2.667646 -11.584317 -0.668049 -0.668300 -5.227900 14.559800 3.200732 1.221780 -2.308325 -4.660452 0.324633 -5.448940 18.061414 -11.632315 19.105247 3.612600 -3.049200 11.692900 -91.444486 -2.858230 31.433521 9.837973 -13.645892 -1.642294 -3.460015 -1.127815 6.958602 -7.125000 0.000000 0.000000 88.655209 -3.264199 24.363056 -17.794065 28.611299 -4.535246 -0.045062 -0.777872 -0.827361 7.125000 0.000000 0.000000 
-28.679426 17.995866 20.790353 -177.717531 6.899123 -169.525263 -12.397034 9.795791 -17.469882 1.693477 11.884573 32.077097 -2.614840 11.176738 -2.658697 0.052900 -1.484800 -4.083900 20.101131 3.276300 -22.922349 -0.459355 -11.115619 27.961597 2.689402 -11.650233 -0.745238 -0.689900 -5.310100 14.795100 3.197761 1.220445 -2.320480 -4.715139 0.318222 -5.460317 18.117531 -11.720727 19.155991 3.647600 -3.087500 11.733600 -91.480226 -2.798104 32.029635 9.909021 -13.755399 -1.669247 -3.425321 -1.130358 6.823058 -7.125000 0.000000 0.000000 88.775084 -3.143909 24.246687 -17.827061 28.655739 -4.559429 -0.045581 -0.786302 -0.668647 7.125000 0.000000 0.000000 
